<svg width="30" height="24" viewBox="0 0 30 24" fill="none" xmlns="http://www.w3.org/2000/svg">
<path fill-rule="evenodd" clip-rule="evenodd" d="M3.00781 0C1.35096 0 0.0078125 1.32905 0.0078125 2.96851V20.5137C0.0078125 22.1531 1.35096 23.4822 3.00781 23.4822H26.948C28.6048 23.4822 29.948 22.1531 29.948 20.5137V2.96851C29.948 1.32905 28.6048 0 26.948 0H3.00781ZM2.00781 2.96851C2.00781 2.42203 2.45553 1.97901 3.00781 1.97901H26.948C27.5003 1.97901 27.948 2.42203 27.948 2.96851V3.23612C27.6053 3.01164 27.1433 3.01184 26.7957 3.26978L16.1779 11.1497C15.4668 11.6774 14.489 11.6774 13.7779 11.1497L3.16004 3.26985C2.81248 3.01191 2.35045 3.01171 2.00781 3.23619V2.96851ZM2.00781 4.88851V20.5137C2.00781 21.0602 2.45553 21.5032 3.00781 21.5032H26.948C27.5003 21.5032 27.948 21.0602 27.948 20.5137V4.88843L17.3779 12.7329C15.9557 13.7883 14.0001 13.7883 12.5779 12.7329L2.00781 4.88851Z" fill="black"/>
</svg>
