<svg width="28" height="28" viewBox="0 0 28 28" fill="none" xmlns="http://www.w3.org/2000/svg">
<path d="M14.8252 23.7634C17.6438 25.2232 20.9888 26.2542 24.9424 26.6399C25.518 26.6961 26.0078 26.2369 26.0078 25.6585V21.0706C26.0078 20.6143 25.6989 20.2159 25.257 20.1022L20.3198 18.832C19.9723 18.7426 19.6035 18.8462 19.3534 19.1035L14.8252 23.7634ZM14.8252 23.7634C9.95702 21.242 6.65945 17.4412 4.50963 13.4758M4.50963 13.4758C2.32135 9.43938 1.32224 5.23241 1.06629 2.03055C1.02127 1.46737 1.47576 1 2.04073 1H6.43345C6.91218 1 7.32375 1.33929 7.41508 1.80922L8.72063 8.52679C8.78308 8.84814 8.68429 9.1797 8.45616 9.41447L4.50963 13.4758Z" stroke="black" stroke-width="2"/>
</svg>
